<svg xmlns="http://www.w3.org/2000/svg" width="24.813" height="25.733" viewBox="0 0 24.813 25.733">
  <g id="Home" transform="translate(1.75 1.75)">
    <path id="Stroke-1" d="M6.464,1.75H0A1.75,1.75,0,0,1-1.75,0,1.75,1.75,0,0,1,0-1.75H6.464A1.75,1.75,0,0,1,8.214,0,1.75,1.75,0,0,1,6.464,1.75Z" transform="translate(7.425 15.714)" fill="#ffc000"/>
    <path id="Stroke-2" d="M10.656,23.983c-4.5,0-7.467,0-9.528-1.48-2.4-1.72-2.878-4.9-2.878-9.483,0-2.71.11-4.446.691-5.856A9.218,9.218,0,0,1,1.807,3.728c.4-.352.853-.751,1.359-1.221q.045-.042.093-.08c.25-.2.535-.444.838-.7C5.917.178,8.182-1.75,10.625-1.75c2.464,0,4.88,2.037,6.644,3.524.283.238.55.463.786.653q.048.038.092.08c.506.469.959.868,1.358,1.22a9.219,9.219,0,0,1,2.867,3.437c.58,1.41.69,3.146.69,5.857,0,4.579-.481,7.762-2.878,9.483C18.123,23.983,15.153,23.983,10.656,23.983ZM5.5,5.115C4.982,5.6,4.525,6,4.12,6.355,2.936,7.4,2.444,7.847,2.177,8.5a13.517,13.517,0,0,0-.427,4.524c0,3.94.424,5.925,1.419,6.639,1.147.823,3.806.823,7.487.823s6.34,0,7.487-.823c.995-.714,1.419-2.7,1.419-6.639A13.524,13.524,0,0,0,19.136,8.5c-.267-.649-.759-1.1-1.943-2.142-.4-.356-.861-.758-1.381-1.239-.252-.2-.518-.428-.8-.665-1.2-1.01-3.2-2.7-4.388-2.7C9.47,1.75,7.6,3.34,6.365,4.392,6.062,4.65,5.775,4.894,5.5,5.115Z" transform="translate(0)" fill="#fff"/>
  </g>
</svg>
