<svg xmlns="http://www.w3.org/2000/svg" width="34.848" height="36.14" viewBox="0 0 34.848 36.14">
  <g id="Home" transform="translate(1.75 1.75)">
    <path id="Stroke-1" d="M6.464,1.75H0A1.75,1.75,0,0,1-1.75,0,1.75,1.75,0,0,1,0-1.75H6.464A1.75,1.75,0,0,1,8.214,0,1.75,1.75,0,0,1,6.464,1.75Z" transform="translate(12.442 23.069)" fill="#ffc000"/>
    <path id="Stroke-2" d="M15.674,34.39c-6.315,0-10.486,0-13.382-2.078C-1.074,29.9-1.75,25.425-1.75,18.995c0-3.806.155-6.244.97-8.225.827-2.009,2.169-3.19,4.026-4.826.562-.495,1.2-1.055,1.909-1.714q.063-.058.13-.112c.351-.282.752-.624,1.176-.985C9.018.957,12.2-1.75,15.63-1.75c3.46,0,6.853,2.861,9.331,4.95.4.335.772.651,1.1.918q.067.054.13.112c.71.659,1.346,1.219,1.908,1.713,1.858,1.636,3.2,2.818,4.026,4.827.815,1.98.969,4.419.969,8.225,0,6.43-.676,10.9-4.042,13.317C26.16,34.39,21.988,34.39,15.674,34.39ZM8.435,7.891C7.7,8.568,7.062,9.133,6.494,9.633c-1.664,1.465-2.354,2.1-2.729,3.008-.432,1.049-.6,2.83-.6,6.354,0,5.533.6,8.321,1.993,9.324,1.611,1.156,5.346,1.156,10.515,1.156s8.9,0,10.515-1.156c1.4-1,1.993-3.791,1.993-9.324,0-3.525-.168-5.306-.6-6.355-.375-.912-1.065-1.543-2.729-3.008-.568-.5-1.209-1.064-1.939-1.74-.354-.287-.727-.6-1.121-.933-1.682-1.418-4.5-3.792-6.163-3.792-1.623,0-4.247,2.233-5.983,3.71C9.221,7.238,8.818,7.581,8.435,7.891Z" transform="translate(0 0)" fill="#fff"/>
  </g>
</svg>
