<svg xmlns="http://www.w3.org/2000/svg" width="35.642" height="35.642" viewBox="0 0 35.642 35.642">
  <g id="Iconly_Light_Category" data-name="Iconly/Light/Category" transform="translate(-1.25 -1.25)">
    <g id="Category" transform="translate(1.25 1.25)">
      <path id="Stroke-1" d="M5.793-1.75c2.821,0,4.979.346,6.341,2.036,1.2,1.489,1.2,3.351,1.2,5.507v.035c0,2.239,0,4.007-1.185,5.477-1.357,1.684-3.523,2.029-6.357,2.029s-5-.345-6.357-2.029C-1.749,9.834-1.749,8.066-1.749,5.828V5.792c0-2.156,0-4.018,1.2-5.507C.814-1.4,2.972-1.75,5.793-1.75ZM8.207,3.494a8.515,8.515,0,0,0-2.414-.215,8.515,8.515,0,0,0-2.414.215,15.54,15.54,0,0,0-.1,2.3v.035A16.173,16.173,0,0,0,3.368,8.1a8.849,8.849,0,0,0,2.424.211A8.849,8.849,0,0,0,8.217,8.1a16.173,16.173,0,0,0,.09-2.268V5.792A15.541,15.541,0,0,0,8.207,3.494Z" transform="translate(1.749 1.75)" fill="#f5f5f5"/>
      <path id="Stroke-3" d="M16.793-1.75c2.821,0,4.979.346,6.341,2.036,1.2,1.489,1.2,3.351,1.2,5.507v.035c0,2.239,0,4.007-1.185,5.478-1.357,1.684-3.523,2.029-6.357,2.029s-5-.345-6.357-2.029C9.251,9.834,9.251,8.066,9.251,5.828V5.792c0-2.156,0-4.018,1.2-5.507C11.814-1.4,13.972-1.75,16.793-1.75Zm2.414,5.244a8.515,8.515,0,0,0-2.414-.216,8.515,8.515,0,0,0-2.414.215,15.541,15.541,0,0,0-.1,2.3v.036a16.171,16.171,0,0,0,.09,2.268,8.85,8.85,0,0,0,2.424.211A8.848,8.848,0,0,0,19.217,8.1a16.17,16.17,0,0,0,.09-2.268V5.792A15.537,15.537,0,0,0,19.207,3.494Z" transform="translate(11.307 1.75)" fill="#f5f5f5"/>
      <path id="Stroke-5" d="M5.793,9.25c2.821,0,4.979.346,6.341,2.036,1.2,1.489,1.2,3.351,1.2,5.507v.035c0,2.239,0,4.007-1.185,5.477-1.357,1.684-3.523,2.029-6.357,2.029s-5-.345-6.357-2.029c-1.185-1.471-1.185-3.239-1.185-5.477v-.035c0-2.156,0-4.018,1.2-5.507C.814,9.6,2.972,9.25,5.793,9.25Zm2.414,5.244a8.515,8.515,0,0,0-2.414-.215,8.515,8.515,0,0,0-2.414.215,15.541,15.541,0,0,0-.1,2.3v.035a16.173,16.173,0,0,0,.09,2.268,8.848,8.848,0,0,0,2.424.211A8.848,8.848,0,0,0,8.217,19.1a16.173,16.173,0,0,0,.09-2.268v-.035A15.541,15.541,0,0,0,8.207,14.494Z" transform="translate(1.749 11.308)" fill="#f5f5f5"/>
      <path id="Stroke-7" d="M16.793,9.25c2.821,0,4.979.346,6.341,2.036,1.2,1.489,1.2,3.351,1.2,5.507v.035c0,2.239,0,4.007-1.185,5.478-1.357,1.684-3.523,2.029-6.357,2.029s-5-.345-6.357-2.029c-1.185-1.471-1.185-3.239-1.185-5.477v-.036c0-2.156,0-4.018,1.2-5.506C11.814,9.6,13.972,9.25,16.793,9.25Zm2.414,5.244a8.514,8.514,0,0,0-2.414-.216,8.515,8.515,0,0,0-2.414.215,15.541,15.541,0,0,0-.1,2.3v.036a16.172,16.172,0,0,0,.09,2.267,8.849,8.849,0,0,0,2.424.211,8.848,8.848,0,0,0,2.424-.211,16.17,16.17,0,0,0,.09-2.268v-.035A15.537,15.537,0,0,0,19.207,14.494Z" transform="translate(11.307 11.308)" fill="#ffc000"/>
    </g>
  </g>
</svg>
