<svg xmlns="http://www.w3.org/2000/svg" width="24.81" height="24.81" viewBox="0 0 24.81 24.81">
  <g id="Iconly_Light_Category" data-name="Iconly/Light/Category" transform="translate(-1.25 -1.25)">
    <g id="Category" transform="translate(3 3)">
      <path id="Stroke-1" d="M3.5-1.75c1.964,0,3.466.241,4.414,1.417C8.751.7,8.751,2,8.751,3.5v.025c0,1.558,0,2.789-.825,3.813C6.982,8.51,5.474,8.75,3.5,8.75S.02,8.51-.924,7.337c-.825-1.024-.825-2.255-.825-3.813V3.5c0-1.5,0-2.8.836-3.833C.035-1.509,1.537-1.75,3.5-1.75ZM5.181,1.9A5.927,5.927,0,0,0,3.5,1.75a5.927,5.927,0,0,0-1.68.15,10.818,10.818,0,0,0-.07,1.6v.025A11.258,11.258,0,0,0,1.813,5.1,6.159,6.159,0,0,0,3.5,5.25,6.159,6.159,0,0,0,5.189,5.1a11.258,11.258,0,0,0,.062-1.578V3.5A10.818,10.818,0,0,0,5.181,1.9Z" transform="translate(-0.001 0)" fill="#f5f5f5"/>
      <path id="Stroke-3" d="M14.5-1.75c1.964,0,3.466.241,4.414,1.417C19.751.7,19.751,2,19.751,3.5v.024c0,1.558,0,2.789-.825,3.813C17.982,8.51,16.474,8.75,14.5,8.75s-3.481-.24-4.425-1.413c-.825-1.024-.825-2.255-.825-3.813V3.5c0-1.5,0-2.8.836-3.833C11.035-1.509,12.537-1.75,14.5-1.75Zm1.68,3.65a5.927,5.927,0,0,0-1.68-.15,5.927,5.927,0,0,0-1.68.15,10.818,10.818,0,0,0-.07,1.6v.025A11.257,11.257,0,0,0,12.813,5.1,6.16,6.16,0,0,0,14.5,5.25,6.159,6.159,0,0,0,16.189,5.1a11.256,11.256,0,0,0,.062-1.579V3.5A10.815,10.815,0,0,0,16.181,1.9Z" transform="translate(3.309 0)" fill="#f5f5f5"/>
      <path id="Stroke-5" d="M3.5,9.25c1.964,0,3.466.241,4.414,1.417C8.751,11.7,8.751,13,8.751,14.5v.025c0,1.558,0,2.789-.825,3.813C6.982,19.51,5.474,19.75,3.5,19.75S.02,19.51-.924,18.337c-.825-1.024-.825-2.255-.825-3.813V14.5c0-1.5,0-2.8.836-3.833C.035,9.491,1.537,9.25,3.5,9.25Zm1.68,3.65a5.927,5.927,0,0,0-1.68-.15,5.927,5.927,0,0,0-1.68.15,10.818,10.818,0,0,0-.07,1.6v.025A11.258,11.258,0,0,0,1.813,16.1,6.159,6.159,0,0,0,3.5,16.25,6.159,6.159,0,0,0,5.189,16.1a11.258,11.258,0,0,0,.062-1.578V14.5A10.818,10.818,0,0,0,5.181,12.9Z" transform="translate(-0.001 3.31)" fill="#f5f5f5"/>
      <path id="Stroke-7" d="M14.5,9.25c1.964,0,3.466.241,4.414,1.417.836,1.036.836,2.332.836,3.833v.024c0,1.558,0,2.789-.825,3.813-.944,1.172-2.452,1.413-4.425,1.413s-3.481-.24-4.425-1.413c-.825-1.024-.825-2.255-.825-3.813V14.5c0-1.5,0-2.8.836-3.833C11.035,9.491,12.537,9.25,14.5,9.25Zm1.68,3.65a5.927,5.927,0,0,0-1.68-.15,5.927,5.927,0,0,0-1.68.15,10.818,10.818,0,0,0-.07,1.6v.025a11.257,11.257,0,0,0,.062,1.578,6.16,6.16,0,0,0,1.688.147,6.159,6.159,0,0,0,1.688-.147,11.256,11.256,0,0,0,.062-1.579V14.5A10.815,10.815,0,0,0,16.181,12.9Z" transform="translate(3.309 3.31)" fill="#ffc000"/>
    </g>
  </g>
</svg>
