<svg xmlns="http://www.w3.org/2000/svg" width="37.748" height="29.497" viewBox="0 0 37.748 29.497">
  <g id="Iconly_Light_3-User" data-name="Iconly/Light/3-User" transform="translate(-0.25 -2.75)">
    <g id="_3-User" data-name="3-User" transform="translate(0.25 2.75)">
      <path id="Stroke-1" d="M17.471,13.794a2.086,2.086,0,0,1-.288-4.151,2.67,2.67,0,0,0,.062-5.279A2.086,2.086,0,0,1,17.921.247a6.842,6.842,0,0,1-.157,13.526A2.1,2.1,0,0,1,17.471,13.794Z" transform="translate(11.34 1.386)" fill="#ffc000"/>
      <path id="Stroke-3" d="M21.19,18.443a2.086,2.086,0,0,1-.744-4.035,1.644,1.644,0,0,0,.582-.323s0-.01,0-.016,0-.007,0-.009a3.88,3.88,0,0,0-2.022-.661,2.086,2.086,0,0,1,.617-4.126A8.834,8.834,0,0,1,23.2,10.478a4.206,4.206,0,0,1,2,3.591c0,1.116-.424,3.151-3.267,4.236A2.082,2.082,0,0,1,21.19,18.443Z" transform="translate(12.548 7.313)" fill="#ffc000"/>
      <path id="Stroke-5" d="M15.383,9.664a24.352,24.352,0,0,1,7.612.93c3.778,1.284,4.342,3.816,4.342,5.211s-.567,3.928-4.362,5.2a24.688,24.688,0,0,1-7.592.91,24.405,24.405,0,0,1-7.611-.928c-3.78-1.282-4.344-3.813-4.344-5.207s.567-3.927,4.361-5.2A24.616,24.616,0,0,1,15.383,9.664Zm0,8.078a21.215,21.215,0,0,0,6.269-.694c1.513-.506,1.513-1.021,1.513-1.241s0-.748-1.513-1.262a20.866,20.866,0,0,0-6.269-.708,21.139,21.139,0,0,0-6.268.7C7.6,15.041,7.6,15.557,7.6,15.778s0,.744,1.512,1.257A20.921,20.921,0,0,0,15.383,17.741Z" transform="translate(3.492 7.584)" fill="#f5f5f5"/>
      <path id="Stroke-7" d="M13.979,16.072h-.046A8.386,8.386,0,0,1,5.568,7.656a8.411,8.411,0,1,1,8.411,8.415Zm0-12.65a4.244,4.244,0,0,0-4.24,4.239s0,.005,0,.008a4.214,4.214,0,0,0,4.2,4.232h.039a4.239,4.239,0,1,0,0-8.479Z" transform="translate(4.896 0.75)" fill="#f5f5f5"/>
      <path id="Stroke-9" d="M7.1,13.794a2.1,2.1,0,0,1-.293-.021A6.842,6.842,0,0,1,6.646.247a2.086,2.086,0,0,1,.676,4.116,2.67,2.67,0,0,0,.062,5.279A2.086,2.086,0,0,1,7.1,13.794Z" transform="translate(1.841 1.386)" fill="#ffc000"/>
      <path id="Stroke-11" d="M3.26,18.443a2.081,2.081,0,0,1-.743-.138C-.326,17.22-.75,15.185-.75,14.069a4.206,4.206,0,0,1,2-3.591A8.834,8.834,0,0,1,4.827,9.273,2.086,2.086,0,0,1,5.443,13.4a3.88,3.88,0,0,0-2.022.661s0,.006,0,.009,0,.012,0,.016A1.644,1.644,0,0,0,4,14.408a2.086,2.086,0,0,1-.744,4.035Z" transform="translate(0.75 7.313)" fill="#ffc000"/>
    </g>
  </g>
</svg>
