<svg xmlns="http://www.w3.org/2000/svg" width="27.147" height="21.213" viewBox="0 0 27.147 21.213">
  <g id="Iconly_Light_3-User" data-name="Iconly/Light/3-User" transform="translate(-0.25 -2.75)">
    <g id="_3-User" data-name="3-User" transform="translate(1.75 4.25)">
      <path id="Stroke-1" d="M16.886,9.982A1.5,1.5,0,0,1,16.679,7a1.92,1.92,0,0,0,.044-3.8,1.5,1.5,0,0,1,.486-2.96A4.921,4.921,0,0,1,17.1,9.967,1.514,1.514,0,0,1,16.886,9.982Z" transform="translate(2.334 -0.565)" fill="#ffc000"/>
      <path id="Stroke-3" d="M20.077,15.861a1.5,1.5,0,0,1-.535-2.9,1.183,1.183,0,0,0,.419-.232s0-.007,0-.012,0,0,0-.007a2.791,2.791,0,0,0-1.454-.475,1.5,1.5,0,0,1,.444-2.967,6.353,6.353,0,0,1,2.57.867,3.025,3.025,0,0,1,1.44,2.582,3.187,3.187,0,0,1-2.349,3.046A1.5,1.5,0,0,1,20.077,15.861Z" transform="translate(2.686 1.161)" fill="#ffc000"/>
      <path id="Stroke-5" d="M12.026,9.664a17.513,17.513,0,0,1,5.474.669c2.717.923,3.122,2.745,3.122,3.748s-.408,2.825-3.137,3.738a17.755,17.755,0,0,1-5.46.654,17.552,17.552,0,0,1-5.474-.667c-2.718-.922-3.124-2.742-3.124-3.745s.407-2.824,3.136-3.739A17.7,17.7,0,0,1,12.026,9.664Zm0,5.809a15.257,15.257,0,0,0,4.508-.5c1.088-.364,1.088-.734,1.088-.893s0-.538-1.088-.908a15.006,15.006,0,0,0-4.509-.51,15.2,15.2,0,0,0-4.508.5c-1.09.366-1.09.737-1.09.9s0,.535,1.087.9A15.046,15.046,0,0,0,12.026,15.473Z" transform="translate(0.049 1.24)" fill="#f5f5f5"/>
      <path id="Stroke-7" d="M11.617,11.348h-.033A6.031,6.031,0,0,1,5.568,5.3a6.049,6.049,0,1,1,6.049,6.052Zm0-9.1A3.052,3.052,0,0,0,8.568,5.3s0,0,0,.006a3.031,3.031,0,0,0,3.021,3.043h.028a3.049,3.049,0,0,0,0-6.1Z" transform="translate(0.458 -0.75)" fill="#f5f5f5"/>
      <path id="Stroke-9" d="M5.359,9.982a1.513,1.513,0,0,1-.21-.015A4.921,4.921,0,0,1,5.036.239,1.5,1.5,0,0,1,5.522,3.2,1.92,1.92,0,0,0,5.566,7a1.5,1.5,0,0,1-.207,2.986Z" transform="translate(-0.432 -0.565)" fill="#ffc000"/>
      <path id="Stroke-11" d="M2.134,15.861a1.5,1.5,0,0,1-.535-.1A3.188,3.188,0,0,1-.75,12.716,3.025,3.025,0,0,1,.69,10.133a6.353,6.353,0,0,1,2.57-.867A1.5,1.5,0,0,1,3.7,12.234a2.79,2.79,0,0,0-1.454.475s0,0,0,.007,0,.008,0,.012a1.182,1.182,0,0,0,.419.232,1.5,1.5,0,0,1-.535,2.9Z" transform="translate(-0.75 1.161)" fill="#ffc000"/>
    </g>
  </g>
</svg>
