<svg xmlns="http://www.w3.org/2000/svg" width="23.773" height="23.842" viewBox="0 0 23.773 23.842">
  <g id="Iconly_Light_Activity" data-name="Iconly/Light/Activity" transform="translate(-1.278 -0.778)">
    <g id="Activity" transform="translate(2.778 2.278)">
      <path id="Path_33966" d="M5.244,15.207a1.5,1.5,0,0,1-1.188-2.415L7.3,8.57A1.5,1.5,0,0,1,9.42,8.305l2.518,1.978,2.254-2.909a1.5,1.5,0,1,1,2.371,1.837l-3.179,4.1a1.5,1.5,0,0,1-2.112.261L8.758,11.6,6.434,14.622A1.5,1.5,0,0,1,5.244,15.207Z" transform="translate(-0.397 -0.137)" fill="#ffc000"/>
      <path id="Ellipse_741" d="M2.086-1.5A3.586,3.586,0,1,1-1.5,2.086,3.59,3.59,0,0,1,2.086-1.5Zm0,4.172A.586.586,0,1,0,1.5,2.086.587.587,0,0,0,2.086,2.672Z" transform="translate(16.6)" fill="#f5f5f5"/>
      <path id="Path" d="M15.411,23.048H6.073a6.585,6.585,0,0,1-4.99-2.043,7.245,7.245,0,0,1-1.805-5.03V7.2A7.242,7.242,0,0,1,1.1,2.166,6.577,6.577,0,0,1,6.073.12h7.888a1.5,1.5,0,0,1,0,3H6.073C3.732,3.12,2.278,4.685,2.278,7.2v8.772c0,2.55,1.419,4.073,3.795,4.073h9.338c2.341,0,3.795-1.561,3.795-4.073V8.336a1.5,1.5,0,0,1,3,0v7.64a7.226,7.226,0,0,1-1.823,5.033A6.583,6.583,0,0,1,15.411,23.048Z" transform="translate(-0.778 -0.706)" fill="#f5f5f5"/>
    </g>
  </g>
</svg>
