<svg xmlns="http://www.w3.org/2000/svg" width="29.954" height="30.042" viewBox="0 0 29.954 30.042">
  <g id="Iconly_Light_Activity" data-name="Iconly/Light/Activity" transform="translate(-1.278 -0.778)">
    <g id="Activity" transform="translate(1.278 0.778)">
      <path id="Path_33966" d="M5.949,15.207A2.925,2.925,0,0,1,4.606,14.9c-.966-.505-1.146-1.447-.4-2.1L8.98,8.57A2.575,2.575,0,0,1,10.454,8a3,3,0,0,1,1.637.309l3.7,1.978L19.11,7.374a2.953,2.953,0,0,1,3.1-.267c.963.507,1.139,1.45.393,2.1l-4.675,4.1a2.58,2.58,0,0,1-1.473.57,3,3,0,0,1-1.633-.309l-3.7-1.975L7.7,14.622A2.681,2.681,0,0,1,5.949,15.207Z" transform="translate(1.103 4.641)" fill="#ffc000"/>
      <path id="Ellipse_741" d="M2.086-1.5A3.586,3.586,0,1,1-1.5,2.086,3.59,3.59,0,0,1,2.086-1.5Zm0,4.172A.586.586,0,1,0,1.5,2.086.587.587,0,0,0,2.086,2.672Z" transform="translate(24.282 1.5)" fill="#f5f5f5"/>
      <path id="Path" d="M19.761,29.248H7.905a8.358,8.358,0,0,1-6.335-2.6A9.207,9.207,0,0,1-.722,20.262V9.119a9.2,9.2,0,0,1,2.313-6.4A8.347,8.347,0,0,1,7.905.12H17.92a1.906,1.906,0,0,1,0,3.811H7.905c-2.972,0-4.818,1.988-4.818,5.187V20.262c0,3.24,1.8,5.175,4.818,5.175H19.761c2.972,0,4.818-1.983,4.818-5.175V10.557a1.9,1.9,0,1,1,3.809,0v9.705a9.184,9.184,0,0,1-2.315,6.394A8.355,8.355,0,0,1,19.761,29.248Z" transform="translate(0.722 0.794)" fill="#f5f5f5"/>
    </g>
  </g>
</svg>
