<svg xmlns="http://www.w3.org/2000/svg" width="30.983" height="36.756" viewBox="0 0 30.983 36.756">
  <g id="fi-br-settings" transform="translate(-1.885)">
    <path id="Tracé_3212" data-name="Tracé 3212" d="M14.319,7.637A6.682,6.682,0,1,0,21,14.319a6.682,6.682,0,0,0-6.682-6.682Zm0,8.769a2.087,2.087,0,1,1,2.087-2.087,2.087,2.087,0,0,1-2.087,2.087Z" transform="translate(3.057 4.059)" fill="#ffc000"/>
    <path id="Tracé_3213" data-name="Tracé 3213" d="M32.691,18.378A15.2,15.2,0,0,0,31.1,11.616l.787-.547a2.3,2.3,0,0,0,.571-3.2h0a2.3,2.3,0,0,0-3.2-.571l-.789.548a15.267,15.267,0,0,0-8.8-4.594V2.3a2.3,2.3,0,0,0-2.3-2.3h0a2.3,2.3,0,0,0-2.3,2.3v.957a15.267,15.267,0,0,0-8.8,4.594L5.495,7.3a2.3,2.3,0,0,0-3.2.571h0a2.3,2.3,0,0,0,.571,3.2l.787.547a15.136,15.136,0,0,0,0,13.523l-.787.547a2.3,2.3,0,0,0-.571,3.2h0a2.3,2.3,0,0,0,3.2.571l.789-.548a15.267,15.267,0,0,0,8.8,4.594v.957a2.3,2.3,0,0,0,2.3,2.3h0a2.3,2.3,0,0,0,2.3-2.3V33.5a15.267,15.267,0,0,0,8.8-4.594l.789.548a2.3,2.3,0,0,0,3.2-.571h0a2.3,2.3,0,0,0-.571-3.2l-.787-.547A15.2,15.2,0,0,0,32.691,18.378ZM17.376,29.1A10.72,10.72,0,1,1,28.1,18.378,10.72,10.72,0,0,1,17.376,29.1Z" transform="translate(0)" fill="#fff"/>
  </g>
</svg>
