<svg xmlns="http://www.w3.org/2000/svg" width="48.504" height="36.378" viewBox="0 0 48.504 36.378">
  <g id="Groupe_1195" data-name="Groupe 1195" transform="translate(-1664 -1486)">
    <path id="fi-br-money" d="M37.388,39.378H11.115A11.128,11.128,0,0,1,0,28.262V14.115A11.128,11.128,0,0,1,11.115,3H37.388A11.128,11.128,0,0,1,48.5,14.115V28.262A11.128,11.128,0,0,1,37.388,39.378ZM11.115,9.063a5.052,5.052,0,0,0-5.052,5.052V28.262a5.052,5.052,0,0,0,5.052,5.052H37.388a5.052,5.052,0,0,0,5.052-5.052V14.115a5.052,5.052,0,0,0-5.052-5.052Z" transform="translate(1664 1483)" fill="#fff"/>
    <path id="Ellipse_741" d="M5.644-1.5A7.144,7.144,0,1,1-1.5,5.644,7.153,7.153,0,0,1,5.644-1.5Zm0,8.312A1.168,1.168,0,1,0,4.477,5.644,1.169,1.169,0,0,0,5.644,6.812Z" transform="translate(1682.607 1498.356)" fill="#ffc000"/>
  </g>
</svg>
