<svg xmlns="http://www.w3.org/2000/svg" width="33.669" height="36.756" viewBox="0 0 33.669 36.756">
  <g id="Groupe_1194" data-name="Groupe 1194" transform="translate(-41.664 -41.117)">
    <g id="Groupe_1194-2" data-name="Groupe 1194" transform="translate(41.664 41.117)">
      <path id="fi-br-map-marker-plus" d="M11.714,34.244a8.739,8.739,0,0,0,12.215.046l5.83-5.417a16.984,16.984,0,0,0,0-23.914,16.8,16.8,0,0,0-23.832,0,17,17,0,0,0,.064,23.977ZM9.181,8.2A12.2,12.2,0,0,1,26.5,8.2h0a12.365,12.365,0,0,1,.07,17.376l-5.82,5.4a4.219,4.219,0,0,1-5.87-.046l-5.7-5.3a12.381,12.381,0,0,1,0-17.433ZM17.84,24.5Z" transform="translate(-1.013 0)" fill="#fff"/>
      <path id="Ellipse_741" d="M3.992-1.5A5.492,5.492,0,1,1-1.5,3.992,5.5,5.5,0,0,1,3.992-1.5Zm0,6.39a.9.9,0,1,0-.9-.9A.9.9,0,0,0,3.992,4.89Z" transform="translate(12.842 14.386)" fill="#ffc000"/>
    </g>
  </g>
</svg>
