<svg xmlns="http://www.w3.org/2000/svg" width="39.685" height="36.378" viewBox="0 0 39.685 36.378">
  <g id="Groupe_1196" data-name="Groupe 1196" transform="translate(-1788 -1486)">
    <path id="fi-br-folder-add" d="M39.685,13.4V28.283a9.1,9.1,0,0,1-9.094,9.094H9.094A9.1,9.1,0,0,1,0,28.283V10.094A9.1,9.1,0,0,1,9.094,1h4.134a2.48,2.48,0,0,1,1.11.261l6.09,3.046H30.59A9.1,9.1,0,0,1,39.685,13.4Zm-4.961,0a4.133,4.133,0,0,0-.084-.827H4.961V28.283a4.134,4.134,0,0,0,4.134,4.134h21.5a4.134,4.134,0,0,0,4.134-4.134Z" transform="translate(1788 1485)" fill="#fff"/>
    <path id="Stroke-1" d="M6.464,1.75H0A1.75,1.75,0,0,1-1.75,0,1.75,1.75,0,0,1,0-1.75H6.464A1.75,1.75,0,0,1,8.214,0,1.75,1.75,0,0,1,6.464,1.75Z" transform="translate(1804.61 1509.866)" fill="#ffc000"/>
  </g>
</svg>
